<svg xmlns="http://www.w3.org/2000/svg"  viewBox="0 0 100 100" width="200px" height="200px"><path fill="#6b96d6" d="M88.058,46.495c-0.148-1.949-1.5-3.547-3.271-3.978l0,0c-5.214-1.268-7.688-7.241-4.897-11.824l0,0 c0.948-1.557,0.774-3.643-0.499-5.126c-1.524-1.775-3.183-3.434-4.957-4.957c-1.483-1.273-3.569-1.447-5.126-0.499l0,0 c-4.583,2.79-10.556,0.316-11.824-4.897l0,0c-0.431-1.771-2.029-3.123-3.978-3.271c-2.332-0.178-4.679-0.178-7.011,0 c-1.949,0.148-3.547,1.5-3.978,3.271l0,0c-1.268,5.214-7.241,7.688-11.824,4.897l0,0c-1.557-0.948-3.643-0.774-5.126,0.499 c-1.775,1.524-3.434,3.183-4.957,4.957c-1.273,1.483-1.447,3.569-0.499,5.126l0,0c2.79,4.583,0.316,10.556-4.897,11.824l0,0 c-1.771,0.431-3.123,2.029-3.271,3.978c-0.178,2.332-0.178,4.679,0,7.011c0.148,1.949,1.5,3.547,3.271,3.978l0,0 c5.214,1.268,7.688,7.241,4.897,11.824l0,0c-0.948,1.557-0.774,3.643,0.499,5.126c1.524,1.775,3.183,3.434,4.957,4.957 c1.483,1.273,3.569,1.447,5.126,0.499l0,0c4.583-2.79,10.556-0.316,11.824,4.897l0,0c0.431,1.771,2.029,3.123,3.978,3.271 c2.332,0.178,4.679,0.178,7.011,0c1.949-0.148,3.547-1.5,3.978-3.271l0,0c1.268-5.214,7.241-7.688,11.824-4.897l0,0 c1.557,0.948,3.643,0.774,5.126-0.499c1.775-1.524,3.434-3.183,4.957-4.957c1.273-1.483,1.447-3.569,0.499-5.126l0,0 c-2.79-4.583-0.316-10.556,4.897-11.824l0,0c1.771-0.431,3.123-2.029,3.271-3.978C88.236,51.173,88.236,48.827,88.058,46.495z"/><circle cx="50" cy="50" r="24" fill="#c9dcf4"/><circle cx="37.973" cy="49.027" r="5.973" fill="#fff"/><circle cx="37.973" cy="49.027" r="2.715" fill="#4a254b"/><circle cx="63.027" cy="49.027" r="5.973" fill="#fff"/><circle cx="63.027" cy="49.027" r="2.715" fill="#4a254b"/><path fill="#4a254b" d="M50.454,60.579c2.864,0,5.224-2.158,5.542-4.936C56.035,55.304,55.786,55,55.444,55c-1.929,0-8.052,0-9.981,0 c-0.342,0-0.591,0.304-0.552,0.643C45.23,58.421,47.59,60.579,50.454,60.579z"/></svg>